<svg enable-background="new 0 0 100 100" height="100" viewBox="0 0 100 100" width="100" xmlns="http://www.w3.org/2000/svg" xmlns:xlink="http://www.w3.org/1999/xlink"><radialGradient id="a" cx="44.2959" cy="38.1963" gradientUnits="userSpaceOnUse" r="46.5778"><stop offset=".0121" stop-color="#26a9e0"/><stop offset=".0861" stop-color="#239cd7"/><stop offset=".2235" stop-color="#1c79be"/><stop offset=".2364" stop-color="#1b75bb"/><stop offset="1" stop-color="#120742"/></radialGradient><radialGradient id="b" cx="48.7671" cy="37.3354" gradientUnits="userSpaceOnUse" r="54.9888"><stop offset="0" stop-color="#929497"/><stop offset=".6727" stop-color="#404041"/><stop offset="1" stop-color="#231f20"/></radialGradient><path d="m71.12 23.871 1.77 1.594s-17.559 13.128-32.281 19.156c0 0-31.407 11.806-27.14 4.793 1.858-3.045 4.24-5.483 9.149-8.186-.3.985-.557 1.988-.763 3.011 9.896-1.841 23.405-9.497 23.405-9.497 12.182-6.613 17.828-11.865 19.837-14.011-3.646-1.435-7.616-2.223-11.775-2.223-14.448 0-26.665 9.543-30.691 22.676-2.138 1.063-9.591 5.025-13.489 10.418 0 0-5.217 7.624 12.44 4.98 21.592-3.414 47.242-13.66 58.328-22.946l1.16 1.679 4.382-12.392z" fill="url(#a)"/><path d="m82.904 38.851.686 2.189s-25.128 12.954-40.556 16.869c0 0-11.455 2.99-19.76 4-5.83.711-10.104.455-7.783-2.501.643-.813 1.413-1.623 2.339-2.407-.617.009-1.234.017-1.854.017-1.83 1.123-3.611 2.438-5.067 3.949 0 0-5.796 6.345 9.805 6.665-1.289.746-2.519 1.594-3.603 2.546 0 0-6.802 6.262 11.008 7.642 2.776.196 5.663.281 8.623.278 4.836 2.925 10.517 4.609 16.582 4.609 8.867 0 16.894-3.59 22.693-9.395 3.848-3.846 6.725-8.661 8.224-14.041-8.853 3.366-24.243 8.85-34.857 10.598 0 0-11.489 1.97-19.842 2.295-5.962.231-10.332-.376-7.727-3.152.441-.471.93-.935 1.473-1.388.909-.017 1.825-.052 2.754-.099 21.276-1.01 47.153-7.903 58.778-15.133l-.132 1.499.667-1.136 8.221-13.904z" fill="url(#b)"/></svg>